<?xml version="1.0" encoding="UTF-8"?>
<svg id="Lager_1" data-name="Lager 1" xmlns="http://www.w3.org/2000/svg" viewBox="0 0 314.79 249.01">
  <defs>
    <style>
      .cls-1, .cls-2 {
        fill: #fff;
      }

      .cls-2 {
        stroke: #fff;
        stroke-miterlimit: 10;
      }
    </style>
  </defs>
  <path class="cls-2" d="M198.53,134.79c.05,.18,.1,.35,.14,.53l-.53,.1c-.01-.18-.03-.37-.05-.55-.08-.92-.2-1.83-.32-2.74,.28,.88,.53,1.76,.76,2.66Z"/>
  <path class="cls-2" d="M315.43,90.06c.88,29.79-13.76,56.23-36.43,71.82-1.92,1.32-4.57,.29-5.08-1.99-6.31-28.65-29.82-49.93-57.86-49.93-1.03,0-2.06,.03-3.08,.09-3.78,.21-7.2-2.29-8.07-5.98-5.28-22.31-20.2-40.34-39.59-48.42-4.19-1.75-5.63-6.92-3.05-10.66,15.71-22.79,42.39-37.44,72.42-36.31,43.9,1.64,79.43,37.48,80.73,81.39Z"/>
  <g>
    <path class="cls-1" d="M58.69,127.66c-.19,.51-.36,1.03-.53,1.55h-.03c.17-.52,.36-1.04,.56-1.55Z"/>
    <path class="cls-1" d="M58.69,127.66c-.2,.51-.39,1.03-.56,1.54h.03c.17-.51,.34-1.03,.53-1.54h0Z"/>
  </g>
  <g>
    <path class="cls-1" d="M198.67,135.32l-.53,.1c-.01-.18-.03-.37-.05-.55-.08-.92-.2-1.83-.32-2.74,.28,.88,.53,1.76,.76,2.66,.05,.18,.1,.35,.14,.53Z"/>
    <path class="cls-1" d="M197.77,132.13c.12,.91,.24,1.82,.32,2.74,.02,.18,.04,.37,.05,.55l.53-.1c-.04-.18-.09-.35-.14-.53-.23-.9-.48-1.78-.76-2.66h0Z"/>
  </g>
  <g>
    <path class="cls-1" d="M58.69,127.66c-.19,.51-.36,1.03-.53,1.55h-.03c.17-.52,.36-1.04,.56-1.55Z"/>
    <path class="cls-1" d="M58.69,127.66c-.2,.51-.39,1.03-.56,1.54h.03c.17-.51,.34-1.03,.53-1.54h0Z"/>
  </g>
  <g>
    <path class="cls-1" d="M198.53,134.79l-.44,.08c-.08-.92-.2-1.83-.32-2.74,.28,.88,.53,1.76,.76,2.66Z"/>
    <path class="cls-1" d="M197.77,132.13c.12,.91,.24,1.82,.32,2.74l.44-.08c-.23-.9-.48-1.78-.76-2.66h0Z"/>
  </g>
  <g>
    <path class="cls-1" d="M198.67,135.32l-.53,.1c-.01-.18-.03-.37-.05-.55-.08-.92-.2-1.83-.32-2.74,.28,.88,.53,1.76,.76,2.66,.05,.18,.1,.35,.14,.53Z"/>
    <path class="cls-1" d="M197.77,132.13c.12,.91,.24,1.82,.32,2.74,.02,.18,.04,.37,.05,.55l.53-.1c-.04-.18-.09-.35-.14-.53-.23-.9-.48-1.78-.76-2.66h0Z"/>
  </g>
  <path class="cls-2" d="M271.79,168.59c-4.65-30.99-29.17-54.63-58.73-54.63-3.35,0-6.66,.31-9.86,.9-4.07-28.47-23.57-51.31-48.8-57.89-4.81-1.26-9.82-1.92-14.98-1.92-19.19,0-36.41,9.19-48.24,23.76-7.12-2.77-14.8-4.27-22.79-4.27C30.5,74.54-.21,108.26-.21,149.84s30.71,75.3,68.6,75.3c9.69,0,18.89-2.2,27.25-6.18,10.97,13.06,26.7,21.23,44.18,21.23,12.68,0,24.44-4.3,34.13-11.65,10.46,10.02,24.13,16.08,39.11,16.08,32.88,0,59.53-29.25,59.53-65.33,0-3.65-.27-7.22-.8-10.7Z"/>
</svg>