<?xml version="1.0" encoding="UTF-8"?>
<svg id="Lager_1" data-name="Lager 1" xmlns="http://www.w3.org/2000/svg" viewBox="0 0 272.79 194.01">
  <defs>
    <style>
      .cls-1 {
        fill: #fff;
        stroke: #fff;
        stroke-miterlimit: 10;
      }
    </style>
  </defs>
  <path class="cls-1" d="M271.84,113.45c-4.65-30.99-29.17-54.63-58.73-54.63-3.35,0-6.66,.31-9.86,.9-4.07-28.47-23.57-51.31-48.8-57.89-4.81-1.26-9.82-1.92-14.98-1.92-19.19,0-36.41,9.19-48.24,23.76-7.12-2.77-14.8-4.27-22.79-4.27C30.55,19.4-.16,53.12-.16,94.7s30.71,75.3,68.6,75.3c9.69,0,18.89-2.2,27.25-6.18,10.97,13.06,26.7,21.23,44.18,21.23,12.68,0,24.44-4.3,34.13-11.65,10.46,10.02,24.13,16.08,39.11,16.08,32.88,0,59.53-29.25,59.53-65.33,0-3.65-.27-7.22-.8-10.7Z"/>
</svg>