<?xml version="1.0" encoding="UTF-8"?>
<svg id="Lager_1" data-name="Lager 1" xmlns="http://www.w3.org/2000/svg" viewBox="0 0 273.8 263.68">
  <defs>
    <style>
      .cls-1 {
        stroke-miterlimit: 10;
        stroke-width: 1px;
      }

      .cls-1, .cls-2, .cls-3, .cls-4 {
        fill: #fff;
        stroke: #fff;
      }

      .cls-2 {
        stroke-miterlimit: 10;
        stroke-width: 1px;
      }

      .cls-3 {
        stroke-miterlimit: 10;
        stroke-width: 1px;
      }

      .cls-4 {
        stroke-miterlimit: 10;
      }
    </style>
  </defs>
  <path class="cls-4" d="M272.5,114.04c-4.65-30.99-29.17-54.63-58.73-54.63-3.35,0-6.66,.31-9.86,.9-4.07-28.47-23.57-51.31-48.8-57.89-4.81-1.26-9.82-1.92-14.98-1.92-19.19,0-36.41,9.19-48.24,23.76-7.12-2.77-14.8-4.27-22.79-4.27-37.89,0-68.6,33.72-68.6,75.3s30.71,75.3,68.6,75.3c9.69,0,18.89-2.2,27.25-6.18,10.97,13.06,26.7,21.23,44.18,21.23,12.68,0,24.44-4.3,34.13-11.65,10.46,10.02,24.13,16.08,39.11,16.08,32.88,0,59.53-29.25,59.53-65.33,0-3.65-.27-7.22-.8-10.7h0Z"/>
  <path class="cls-1" d="M68.88,183.8h0c1.81,.67,2.74,2.68,2.07,4.49l-7.61,20.65c-.67,1.81-2.68,2.74-4.49,2.07h0c-1.81-.67-2.74-2.68-2.07-4.49l7.61-20.65c.67-1.81,2.68-2.74,4.49-2.07Z"/>
  <rect class="cls-1" x="96.82" y="202.83" width="29.56" height="7.56" rx="3.5" ry="3.5" transform="translate(-120.85 239.93) rotate(-69.78)"/>
  <rect class="cls-1" x="149.44" y="205.96" width="27.33" height="7.31" rx="3.5" ry="3.5" transform="translate(-89.96 290.22) rotate(-69.78)"/>
  <path class="cls-2" d="M47.46,249.95h0c-1.83-.63-2.79-2.63-2.16-4.45l6.63-19.14c.63-1.83,2.63-2.79,4.45-2.16h0c1.83,.63,2.79,2.63,2.16,4.45l-6.63,19.14c-.63,1.83-2.63,2.79-4.45,2.16Z"/>
  <rect class="cls-3" x="85.32" y="242.02" width="28.47" height="7.11" rx="3.5" ry="3.5" transform="translate(-165.29 254.12) rotate(-69.78)"/>
  <rect class="cls-3" x="134.34" y="246.06" width="28.47" height="7.06" rx="3.5" ry="3.5" transform="translate(-136.98 302.75) rotate(-69.78)"/>
</svg>