<?xml version="1.0" encoding="UTF-8"?>
<svg id="Lager_1" data-name="Lager 1" xmlns="http://www.w3.org/2000/svg" viewBox="0 0 316.87 310.11">
  <defs>
    <style>
      .cls-1 {
        stroke-miterlimit: 10;
        stroke-width: 1px;
      }

      .cls-1, .cls-2, .cls-3, .cls-4 {
        fill: #fff;
        stroke: #fff;
      }

      .cls-2 {
        stroke-miterlimit: 10;
        stroke-width: 1px;
      }

      .cls-3 {
        stroke-miterlimit: 10;
        stroke-width: 1px;
      }

      .cls-4 {
        stroke-miterlimit: 10;
      }
    </style>
  </defs>
  <path class="cls-4" d="M272.5,160.46c-4.65-30.99-29.17-54.63-58.73-54.63-3.35,0-6.66,.31-9.86,.9-4.07-28.47-23.57-51.31-48.8-57.89-4.81-1.26-9.82-1.92-14.98-1.92-19.19,0-36.41,9.19-48.24,23.76-7.12-2.77-14.8-4.27-22.79-4.27C31.21,66.41,.5,100.13,.5,141.71s30.71,75.3,68.6,75.3c9.69,0,18.89-2.2,27.25-6.18,10.97,13.06,26.7,21.23,44.18,21.23,12.68,0,24.44-4.3,34.13-11.65,10.46,10.02,24.13,16.08,39.11,16.08,32.88,0,59.53-29.25,59.53-65.33,0-3.65-.27-7.22-.8-10.7h0Z"/>
  <path class="cls-1" d="M68.87,230.22h0c1.81,.67,2.74,2.68,2.07,4.49l-7.61,20.65c-.67,1.81-2.68,2.74-4.49,2.07h0c-1.81-.67-2.74-2.68-2.07-4.49l7.61-20.65c.67-1.81,2.68-2.74,4.49-2.07Z"/>
  <rect class="cls-1" x="96.83" y="249.27" width="29.56" height="7.56" rx="3.5" ry="3.5" transform="translate(-164.42 270.32) rotate(-69.78)"/>
  <rect class="cls-1" x="149.44" y="252.38" width="27.33" height="7.31" rx="3.5" ry="3.5" transform="translate(-133.53 320.59) rotate(-69.78)"/>
  <path class="cls-2" d="M47.59,296.42h0c-1.83-.61-2.82-2.6-2.21-4.43l6.43-19.2c.61-1.83,2.6-2.82,4.43-2.21h0c1.83,.61,2.82,2.6,2.21,4.43l-6.43,19.2c-.61,1.83-2.6,2.82-4.43,2.21Z"/>
  <rect class="cls-3" x="85.33" y="288.46" width="28.47" height="7.11" rx="3.5" ry="3.5" transform="translate(-208.87 284.51) rotate(-69.78)"/>
  <rect class="cls-3" x="134.35" y="292.49" width="28.47" height="7.06" rx="3.5" ry="3.5" transform="translate(-180.55 333.13) rotate(-69.78)"/>
  <path class="cls-4" d="M316.33,81.95c.88,29.79-13.76,56.23-36.43,71.82-1.92,1.32-4.57,.29-5.08-1.99-6.31-28.65-29.82-49.93-57.86-49.93-1.03,0-2.06,.03-3.08,.09-3.78,.21-7.2-2.29-8.07-5.98-5.28-22.31-20.2-40.34-39.59-48.42-4.19-1.75-5.63-6.92-3.05-10.66C178.88,14.08,205.56-.57,235.59,.56c43.9,1.64,79.43,37.48,80.73,81.39h.01Z"/>
</svg>