<?xml version="1.0" encoding="UTF-8"?>
<svg id="Lager_1" data-name="Lager 1" xmlns="http://www.w3.org/2000/svg" viewBox="0 0 356.64 353.01">
  <defs>
    <style>
      .cls-1 {
        fill: #fff;
        stroke: #fff;
        stroke-miterlimit: 10;
      }
    </style>
  </defs>
  <path class="cls-1" d="M356.05,122.65c0,33.78-53.5,60.17-61.5,61.17-1.48,.19-2,0-4.37-.16-6.12-.41-9.49-14.46-9.63-15.84-4-39-27.15-65.59-60.02-65.59-3.36,0-6.66,.31-9.87,.89-4.84-33.88-31.55-59.8-63.78-59.8-18.09,0-38.79,5.77-51.16,18.99-1.31,1.4-3.25,2.01-5.1,1.53-.04,0-.07-.02-.11-.03-3.93-.99-5.65-5.63-3.32-8.96,12.79-18.3,34.07-30.29,58.15-30.29,8.25,0,16.17,1.4,23.52,4,12.2-13.65,29.97-22.25,49.77-22.25,33.26,0,60.82,24.27,65.82,56,3.31-.55,6.71-.84,10.18-.84,33.92,0,61.42,27.39,61.42,61.17Z"/>
  <path class="cls-1" d="M277.05,172.57c0,4.87-.48,9.61-1.41,14.17-5.89,29.27-29.67,51.16-58.11,51.16-14.98,0-28.66-6.07-39.12-16.08-7.51,5.7-16.27,9.57-25.74,11.01-2.74,.42-5.54,.64-8.39,.64-8.27,0-16.14-1.83-23.3-5.14-7.99-3.68-15.09-9.21-20.88-16.09-8.35,3.98-17.56,6.17-27.25,6.17-37.88,0-68.6-33.71-68.6-75.29s30.72-75.3,68.6-75.3c2.15,0,4.27,.11,6.36,.32,5.71,.58,11.22,1.92,16.44,3.95,8.79-17.56,28.7-24.1,48.23-23.76,32.23,.55,58.94,25.92,63.78,59.8,3.21-.58,6.51-.89,9.87-.89,32.87,0,59.52,29.25,59.52,65.33Z"/>
  <path class="cls-1" d="M157.62,284.26l-15.54,21.61c.04,.08,.08,.17,.1,.27l13.16,45.27c.39,1.33-.64,2.65-1.44,1.85l-41.83-55.57c-.32-.64-.22-1.57,.22-2.06l4.42-5,13.07-14.99,2-2.29c.35-.39,.48-1.07,.35-1.69l-7.29-31.03c-.18-.75,.09-1.6,.59-1.88l.12-.08c5.29,3.98,11.17,6.28,17.43,6.5,1.14,.04,2.27,0,3.39-.09,1.8-.16,3.43,1.47,4.03,4.02l7.81,33.26c.18,.76-.09,1.61-.59,1.9Z"/>
</svg>