<?xml version="1.0" encoding="UTF-8"?>
<svg id="Lager_1" data-name="Lager 1" xmlns="http://www.w3.org/2000/svg" viewBox="0 0 155.25 155">
  <defs>
    <style>
      .cls-1 {
        fill: #fff;
      }
    </style>
  </defs>
  <path class="cls-1" d="M75.28,154.73c-1.21,0-2.2-.98-2.2-2.2v-15.2l-12.47,15.39c-.42,.52-1.04,.81-1.71,.81-.5,0-.99-.17-1.38-.49l-2.56-2.07c-.94-.76-1.08-2.15-.32-3.09l18.43-22.76v-23.56l-.23-.04c-3.41-.66-6.59-2.03-9.44-4.06l-.19-.14-17.25,17.25-.23,28.99c0,1.2-.99,2.18-2.19,2.18l-3.3-.02c-.59,0-1.14-.24-1.55-.66-.41-.42-.64-.97-.63-1.56l.16-21.19-11.06,11.06c-.41,.41-.97,.64-1.56,.64s-1.14-.23-1.56-.64l-2.34-2.33c-.86-.86-.86-2.25,0-3.11l10.35-10.35-19.3,2.62c-.1,.02-.2,.02-.3,.02-1.09,0-2.03-.82-2.18-1.9l-.44-3.25c-.08-.58,.08-1.15,.43-1.62,.36-.47,.87-.77,1.45-.85l28.98-3.94c.06-.01,.13-.02,.18-.02h.12l16.8-16.8-.13-.19c-2.06-2.92-3.45-6.32-4.05-9.82l-.04-.23H29.07l-20.79,20.79c-.41,.41-.97,.64-1.56,.64s-1.14-.23-1.56-.64l-2.32-2.32c-.41-.41-.64-.97-.64-1.56s.23-1.14,.64-1.56l15.36-15.36H2.72c-1.21,0-2.2-.98-2.2-2.2v-3.3c0-1.21,.98-2.2,2.2-2.2h13.52L1.15,62.63c-.47-.35-.77-.86-.86-1.45-.08-.58,.07-1.16,.42-1.63l1.97-2.63c.42-.56,1.06-.87,1.76-.87,.48,0,.93,.15,1.32,.43l23.29,17.44h24.55l.04-.23c.6-3.52,1.94-6.8,3.99-9.75l.13-.19-17.56-17.56-29.07,.52c-1.23,0-2.22-.97-2.24-2.16l-.05-3.28c-.01-.59,.21-1.14,.62-1.57,.41-.42,.96-.66,1.54-.67l21.66-.39-11.5-11.5c-.86-.86-.86-2.25,0-3.11l2.33-2.33c.41-.41,.97-.64,1.56-.64s1.14,.23,1.56,.64l10.05,10.05-3.02-18.63c-.19-1.19,.63-2.32,1.82-2.52l3.24-.52c.12-.02,.24-.03,.36-.03,1.07,0,2,.79,2.17,1.85l4.73,29.14,17.21,17.21,.19-.14c2.86-2.06,6.06-3.45,9.51-4.12l.22-.04V29.4L54.09,7.94c-.8-.91-.72-2.31,.19-3.11l2.46-2.17c.4-.36,.92-.55,1.46-.55,.63,0,1.23,.27,1.65,.74l13.24,14.96V2.47c0-1.21,.98-2.2,2.2-2.2h3.3c1.21,0,2.2,.98,2.2,2.2V19.11l13.46-15.86c.42-.49,1.03-.77,1.68-.77,.52,0,1.03,.19,1.42,.52l2.51,2.12c.45,.38,.71,.91,.76,1.5s-.13,1.15-.51,1.6l-18.93,22.3c-.09,.11-.18,.2-.27,.27l-.11,.08v22.94l.24,.03c3.72,.54,7.29,1.97,10.36,4.13l.19,.13,17.29-17.29v-.13c-.01-.06-.02-.12-.02-.18V11.27c0-1.21,.98-2.2,2.2-2.2h3.28c1.21,0,2.2,.98,2.2,2.2v21.9l11.32-11.32c.41-.41,.97-.64,1.56-.64s1.14,.23,1.56,.64l2.33,2.33c.86,.86,.86,2.25,0,3.11l-9.73,9.73,18.46-2.65c.11-.02,.21-.02,.32-.02,1.08,0,2.02,.81,2.17,1.89l.47,3.25c.17,1.2-.67,2.31-1.86,2.49l-28.61,4.11-17.45,17.45,.14,.19c2.12,2.95,3.55,6.4,4.16,9.98l.04,.23h24.43l21.36-19.91c.41-.38,.94-.59,1.5-.59,.61,0,1.2,.25,1.61,.7l2.24,2.4c.4,.43,.61,.99,.59,1.58-.02,.59-.27,1.13-.69,1.53l-15.34,14.3h15.73c1.21,0,2.2,.98,2.2,2.2v3.3c0,1.21-.98,2.2-2.2,2.2h-15.29l15.4,12.39c.95,.76,1.09,2.15,.34,3.09l-2.06,2.56c-.42,.52-1.04,.82-1.72,.82-.5,0-.99-.17-1.37-.48l-22.83-18.37h-23.88l-.04,.23c-.62,3.61-2.07,7.08-4.22,10.06l-.14,.19,17,17,.18-.09c.3-.15,.64-.23,.98-.23,.05,0,.1,0,.16,0l29.17,2.15c1.21,.09,2.12,1.14,2.03,2.36l-.24,3.28c-.08,1.14-1.04,2.03-2.18,2.03-.05,0-.11,0-.17,0l-22.05-1.63,10.87,10.87c.86,.86,.86,2.25,0,3.11l-2.33,2.33c-.41,.41-.97,.64-1.56,.64s-1.14-.23-1.56-.64l-9.56-9.56,1.29,18.61c.08,1.21-.83,2.26-2.04,2.35l-3.28,.23h-.15c-1.15,0-2.12-.9-2.19-2.04l-1.9-27.42-17.93-17.93-.19,.13c-3.05,2.13-6.61,3.53-10.29,4.08l-.24,.03v23.93l19.86,21.44c.4,.43,.6,.99,.58,1.58-.02,.59-.27,1.13-.7,1.53l-2.41,2.23c-.41,.37-.93,.58-1.49,.58-.61,0-1.2-.25-1.62-.7l-14.22-15.36v15.56c0,1.21-.98,2.2-2.2,2.2h-3.3v-.02Zm2.19-92.89c-8.49,0-15.39,6.9-15.39,15.39s6.9,15.39,15.39,15.39,15.39-6.9,15.39-15.39-6.9-15.39-15.39-15.39Z"/>
  <path class="cls-1" d="M78.58,.55c1.06,0,1.92,.86,1.92,1.92V19.86l.97-1.14,12.97-15.29c.36-.43,.9-.68,1.47-.68,.46,0,.9,.16,1.24,.46l2.51,2.12c.81,.69,.91,1.9,.23,2.71l-18.93,22.3c-.08,.09-.16,.17-.24,.23l-.21,.16v23.31l.47,.07c3.67,.54,7.21,1.95,10.24,4.08l.38,.26,.33-.33,17.03-17.03,.18-.18-.02-.25s-.01-.1-.01-.16V11.27c0-1.06,.86-1.92,1.92-1.92h3.28c1.06,0,1.92,.86,1.92,1.92v22.56l.94-.94,10.85-10.85c.36-.36,.85-.56,1.36-.56s1,.2,1.36,.56l2.33,2.33c.75,.75,.75,1.97,0,2.72l-9.15,9.15-1.17,1.17,1.63-.24,17.64-2.53c.09-.01,.19-.02,.27-.02,.95,0,1.76,.71,1.9,1.65l.47,3.25c.15,1.05-.58,2.03-1.63,2.18l-28.52,4.1-.18,.03-.13,.13-17.22,17.22-.33,.33,.27,.38c2.09,2.92,3.51,6.33,4.12,9.87l.08,.46h24.77l.16-.15,21.29-19.84c.36-.33,.82-.52,1.31-.52,.53,0,1.04,.22,1.41,.61l2.24,2.4c.73,.78,.68,2-.09,2.72l-14.83,13.82-1.02,.95h16.42c1.06,0,1.92,.86,1.92,1.92v3.3c0,1.06-.86,1.92-1.92,1.92h-16.07l1.21,.98,14.79,11.9c.82,.67,.96,1.88,.3,2.7l-2.06,2.56c-.37,.46-.91,.71-1.51,.71-.45,0-.86-.15-1.2-.42l-22.76-18.31-.15-.12h-24.21l-.08,.46c-.6,3.57-2.05,7.01-4.17,9.94l-.27,.38,.33,.33,16.69,16.69,.28,.28,.35-.18c.26-.13,.56-.2,.86-.2h.14l29.17,2.15c1.06,.08,1.86,1,1.78,2.06l-.24,3.28c-.07,.99-.91,1.78-1.91,1.78-.05,0-.1,0-.15,0l-21.32-1.57-1.47-.11,1.04,1.04,10.34,10.34c.75,.75,.75,1.97,0,2.72l-2.33,2.33c-.36,.36-.85,.56-1.36,.56s-1-.2-1.36-.56l-9.05-9.05-1.04-1.04,.1,1.47,1.24,17.87c.03,.51-.13,1.01-.47,1.4-.34,.39-.81,.62-1.32,.66l-3.28,.23h-.13c-1.01,0-1.85-.79-1.92-1.79l-1.89-27.31-.02-.2-.14-.14-17.7-17.7-.32-.32-.38,.26c-3.02,2.11-6.53,3.5-10.17,4.03l-.47,.07v24.27l.15,.16,19.79,21.36c.35,.37,.53,.87,.51,1.39-.02,.52-.24,.99-.62,1.34l-2.41,2.23c-.35,.33-.81,.51-1.3,.51-.54,0-1.06-.23-1.41-.61l-13.75-14.85-.95-1.03v16.26c0,1.06-.86,1.92-1.92,1.92h-3.3c-1.06,0-1.92-.86-1.92-1.92v-15.98l-.98,1.2-11.98,14.79c-.36,.45-.91,.71-1.5,.71-.44,0-.87-.15-1.21-.43l-2.56-2.07c-.82-.67-.95-1.88-.28-2.7l18.37-22.68,.12-.15v-23.88l-.45-.09c-3.37-.65-6.51-2-9.33-4.02l-.38-.27-.33,.33-17.01,17.01-.16,.16v.23l-.23,28.88c0,1.05-.86,1.9-1.93,1.9l-3.28-.02c-1.06-.01-1.92-.88-1.91-1.94l.16-20.52v-1.34s-.94,.95-.94,.95l-10.59,10.59c-.36,.36-.85,.56-1.36,.56s-1-.2-1.36-.56l-2.34-2.33c-.75-.75-.75-1.97,0-2.72l9.77-9.77,1.15-1.15-1.62,.22-18.5,2.51c-.09,.01-.18,.02-.26,.02-.96,0-1.78-.71-1.9-1.67l-.44-3.25c-.07-.51,.07-1.01,.38-1.42s.76-.68,1.27-.74l28.99-3.94s.09-.01,.14-.01h.23l.16-.16,16.56-16.56,.32-.32-.26-.38c-2.03-2.89-3.41-6.24-4-9.7l-.08-.46H28.95l-.16,.16-.03,.03-20.68,20.68c-.36,.36-.85,.56-1.36,.56s-1-.2-1.36-.56l-2.32-2.32c-.75-.75-.75-1.97,0-2.73l14.9-14.89,.94-.94H2.72c-1.06,0-1.92-.86-1.92-1.92v-3.3c0-1.06,.86-1.92,1.92-1.92h14.34l-1.32-.99L1.31,62.4c-.41-.31-.68-.75-.75-1.26s.05-1.01,.36-1.42l1.97-2.63c.36-.48,.92-.76,1.54-.76,.42,0,.82,.13,1.15,.38l23.22,17.39,.15,.11h24.87l.08-.46c.59-3.48,1.92-6.72,3.95-9.64l.26-.38-.32-.32-17.31-17.31-.16-.16h-.23l-28.95,.53h-.03c-1.04,0-1.91-.85-1.93-1.89l-.05-3.28c-.01-.51,.18-1,.54-1.37s.84-.58,1.35-.59l21.01-.38,1.29-.02-.91-.91-11.04-11.04c-.36-.36-.56-.85-.56-1.36s.2-1,.56-1.36l2.33-2.33c.36-.36,.85-.56,1.36-.56s1,.2,1.36,.56l9.45,9.45,1.2,1.2-.27-1.68-2.89-17.79c-.16-1.04,.54-2.03,1.59-2.2l3.24-.52c.1-.02,.21-.03,.31-.03,.93,0,1.75,.69,1.9,1.62l4.68,28.88s0,.04,.01,.07c0,.04,.01,.08,.02,.12l.03,.17,.12,.12,16.99,16.99,.33,.33,.38-.27c2.83-2.04,5.99-3.41,9.41-4.07l.45-.09V29.3l-.14-.15L54.3,7.76c-.7-.8-.63-2.02,.16-2.72l2.46-2.17c.35-.31,.8-.48,1.27-.48,.56,0,1.08,.24,1.44,.65l12.76,14.42,.96,1.09V2.47c0-1.06,.86-1.92,1.92-1.92h3.3m-1.1,92.34c8.63,0,15.66-7.03,15.66-15.66s-7.03-15.66-15.66-15.66-15.66,7.03-15.66,15.66,7.03,15.66,15.66,15.66M78.57,0h-3.3c-1.36,0-2.47,1.11-2.47,2.47v14.62L60.04,2.67c-.49-.55-1.17-.84-1.85-.84-.58,0-1.17,.2-1.64,.62l-2.46,2.17c-1.02,.9-1.12,2.47-.21,3.5l18.92,21.38v24.26c-3.54,.69-6.8,2.13-9.62,4.17l-16.99-16.99c-.01-.06-.02-.12-.03-.18l-4.68-28.87c-.19-1.21-1.25-2.08-2.44-2.08-.13,0-.26,.01-.4,.03l-3.24,.52c-1.34,.22-2.26,1.5-2.04,2.84l2.89,17.79-9.45-9.45c-.48-.48-1.12-.72-1.75-.72s-1.27,.24-1.75,.72l-2.33,2.33c-.96,.96-.96,2.53,0,3.5l11.04,11.04-21.01,.38c-1.36,.02-2.45,1.15-2.42,2.52l.05,3.28c.03,1.35,1.14,2.43,2.48,2.43h.04l28.95-.52,17.31,17.31c-2.01,2.89-3.42,6.24-4.03,9.86H29.14L5.92,56.27c-.45-.33-.97-.49-1.48-.49-.75,0-1.5,.34-1.98,.98l-1.97,2.63c-.82,1.09-.59,2.64,.49,3.46l14.43,10.8H2.72c-1.36,0-2.47,1.11-2.47,2.47v3.3c0,1.36,1.11,2.47,2.47,2.47h14.82l-14.9,14.89c-.96,.96-.96,2.54,0,3.5l2.32,2.32c.48,.48,1.12,.72,1.75,.72s1.27-.24,1.75-.72l20.68-20.68s.02-.02,.03-.03h24.18c.62,3.64,2.04,7.02,4.09,9.93l-16.56,16.56c-.07,0-.15,0-.22,.02l-28.98,3.94c-1.35,.18-2.3,1.43-2.12,2.78l.44,3.25c.16,1.23,1.23,2.14,2.45,2.14,.11,0,.23,0,.34-.02l18.5-2.51-9.77,9.77c-.96,.96-.96,2.53,0,3.5l2.34,2.33c.48,.48,1.12,.72,1.75,.72s1.27-.24,1.75-.72l10.59-10.59-.16,20.52c-.01,1.36,1.09,2.48,2.46,2.5l3.28,.02h.02c1.35,0,2.46-1.1,2.47-2.45l.23-28.88,17.01-17.01c2.8,2.01,6.04,3.44,9.55,4.11v23.23l-18.37,22.68c-.86,1.06-.69,2.62,.36,3.48l2.56,2.07c.46,.37,1.01,.55,1.55,.55,.72,0,1.43-.31,1.92-.91l11.98-14.79v14.43c0,1.36,1.11,2.47,2.47,2.47h3.3c1.36,0,2.47-1.11,2.47-2.47v-14.86l13.75,14.85c.49,.52,1.15,.79,1.82,.79,.6,0,1.2-.21,1.68-.65l2.41-2.23c1-.92,1.06-2.5,.14-3.5l-19.79-21.36v-23.58c3.83-.56,7.37-2.01,10.4-4.12l17.7,17.7,1.89,27.31c.09,1.3,1.18,2.3,2.47,2.3,.05,0,.12,0,.17,0l3.28-.23c1.36-.09,2.39-1.28,2.3-2.64l-1.24-17.87,9.05,9.05c.48,.48,1.12,.72,1.75,.72s1.27-.24,1.75-.72l2.33-2.33c.96-.96,.96-2.53,0-3.5l-10.34-10.34,21.32,1.57c.07,0,.13,0,.19,0,1.28,0,2.36-.99,2.46-2.29l.24-3.28c.1-1.36-.93-2.55-2.29-2.65l-29.17-2.15c-.06,0-.12,0-.18,0-.39,0-.77,.09-1.1,.26l-16.69-16.69c2.14-2.96,3.63-6.43,4.27-10.17h23.55l22.76,18.31c.46,.36,1,.54,1.54,.54,.73,0,1.45-.31,1.93-.92l2.06-2.56c.85-1.06,.68-2.62-.38-3.48l-14.79-11.9h14.51c1.36,0,2.47-1.11,2.47-2.47v-3.3c0-1.36-1.11-2.47-2.47-2.47h-15.03l14.83-13.82c.99-.93,1.05-2.5,.12-3.5l-2.24-2.4c-.48-.52-1.15-.79-1.81-.79-.6,0-1.21,.22-1.69,.67l-21.29,19.84h-24.09c-.63-3.72-2.1-7.15-4.21-10.1l17.22-17.22,28.52-4.1c1.35-.2,2.29-1.46,2.09-2.8l-.47-3.25c-.18-1.23-1.24-2.12-2.44-2.12-.12,0-.24,.01-.36,.03l-17.64,2.53,9.15-9.15c.96-.96,.96-2.53,0-3.5l-2.33-2.33c-.48-.48-1.12-.72-1.75-.72s-1.27,.24-1.75,.72l-10.85,10.85V11.27c0-1.36-1.11-2.47-2.47-2.47h-3.28c-1.36,0-2.47,1.11-2.47,2.47v29.25c0,.07,0,.14,.01,.2l-17.03,17.03c-3.05-2.15-6.62-3.61-10.48-4.18V31.01c.12-.09,.22-.19,.32-.31l18.93-22.3c.88-1.03,.75-2.61-.29-3.48l-2.51-2.12c-.46-.4-1.03-.59-1.59-.59-.7,0-1.4,.3-1.89,.87l-12.97,15.29V2.47C81.05,1.11,79.94,0,78.58,0h0Zm-1.1,92.34c-8.35,0-15.12-6.77-15.12-15.12s6.77-15.12,15.12-15.12,15.12,6.77,15.12,15.12-6.77,15.12-15.12,15.12h0Z"/>
</svg>