<?xml version="1.0" encoding="UTF-8"?>
<svg id="Lager_1" data-name="Lager 1" xmlns="http://www.w3.org/2000/svg" viewBox="0 0 315 254.06">
  <defs>
    <style>
      .cls-1 {
        fill: #fff;
        stroke: #fff;
        stroke-miterlimit: 10;
      }
    </style>
  </defs>
  <rect class="cls-1" x="82.41" y=".5" width="159.63" height="9.29" rx="4" ry="4"/>
  <rect class="cls-1" x="20.45" y="26.04" width="199.53" height="9.29" rx="4" ry="4"/>
  <rect class="cls-1" x="98.17" y="51.58" width="216.33" height="9.29" rx="4" ry="4"/>
  <rect class="cls-1" x="20.45" y="77.11" width="276.19" height="9.29" rx="4" ry="4"/>
  <rect class="cls-1" x=".5" y="102.65" width="205.83" height="9.29" rx="4" ry="4"/>
  <rect class="cls-1" x="23.61" y="128.19" width="276.19" height="9.29" rx="4" ry="4"/>
  <rect class="cls-1" x="79.26" y="157.21" width="159.63" height="9.29" rx="4" ry="4"/>
  <rect class="cls-1" x="19.01" y="186.23" width="276.19" height="9.29" rx="4" ry="4"/>
  <rect class="cls-1" x="92.34" y="215.25" width="199.53" height="9.29" rx="4" ry="4"/>
  <rect class="cls-1" x="72.29" y="244.27" width="159.63" height="9.29" rx="4" ry="4"/>
</svg>